<svg width="30" height="40" viewBox="0 0 30 40" fill="none" xmlns="http://www.w3.org/2000/svg">
<path d="M27.5713 0H16.6189H5.05711C2.27558 0.00511901 0.0183332 2.25177 0 5.0333V34.9664C0.0183332 37.748 2.27558 39.9946 5.05711 39.9997H27.5855C28.2041 40.0089 28.8006 39.7707 29.2427 39.3378C29.6645 38.9045 29.9003 38.3236 29.8998 37.7188V2.32856C29.8972 1.04356 28.8562 0.00261903 27.5713 0ZM17.5808 1.90475H23.176V10.838L21.1903 7.67138C21.1099 7.53733 20.9977 7.42507 20.8637 7.34472C20.4126 7.07412 19.8276 7.22031 19.557 7.67138L17.5808 10.8237V1.90475ZM1.92856 5.0333C1.93642 3.30867 3.33248 1.91261 5.05711 1.90475H15.6761V11.619C15.6403 12.3922 16.1257 13.094 16.8618 13.3332C17.6999 13.5856 18.4523 13.0428 18.8999 12.3285L20.3808 9.94756L21.8618 12.3285C22.3046 13.0332 23.057 13.5761 23.9189 13.3332C24.6515 13.0949 25.136 12.3983 25.1046 11.6285V1.92856H27.5855C27.8054 1.93118 27.9829 2.10868 27.9855 2.32856V29.9468C27.8534 29.9245 27.7196 29.9134 27.5855 29.9141H5.05711C3.92105 29.9137 2.81832 30.2981 1.92856 31.0046V5.0333ZM27.9855 34.0236L6.02853 34.0474C5.50258 34.0474 5.07616 34.4738 5.07616 34.9998C5.07616 35.5257 5.50258 35.9522 6.02853 35.9522L27.9855 35.9283V37.6998C27.9865 37.8063 27.9455 37.909 27.8712 37.9855C27.7948 38.0596 27.6921 38.1007 27.5855 38.0998H5.05711C3.32796 38.0998 1.92618 36.698 1.92618 34.9688C1.92618 33.2397 3.32796 31.8379 5.05711 31.8379H27.5855C27.8054 31.8405 27.9829 32.018 27.9855 32.2379V34.0236Z" fill="#FF7B6B"/>
</svg>
